<?xml version="1.0" encoding="utf-8"?>
<!-- Generator: Adobe Illustrator 26.1.0, SVG Export Plug-In . SVG Version: 6.00 Build 0)  -->
<svg version="1.1" id="Layer_1" xmlns="http://www.w3.org/2000/svg" xmlns:xlink="http://www.w3.org/1999/xlink" x="0px" y="0px"
	 viewBox="0 0 128 128" style="enable-background:new 0 0 128 128;" xml:space="preserve">
<style type="text/css">
	.st0{fill:#00738F;}
	.st1{fill:#00AEEF;}
	.st2{fill:none;stroke:#000000;stroke-miterlimit:10;}
</style>
<path class="st0" d="M112,128H16c-8.8,0-16-7.2-16-16V16C0,7.2,7.2,0,16,0h96c8.8,0,16,7.2,16,16v96C128,120.8,120.8,128,112,128z
	 M16,4C9.4,4,4,9.4,4,16v96c0,6.6,5.4,12,12,12h96c6.6,0,12-5.4,12-12V16c0-6.6-5.4-12-12-12H16z"/>
<circle class="st1" cx="43.3" cy="44.7" r="6.1"/>
<circle class="st1" cx="84.7" cy="44.7" r="6.1"/>
<circle class="st1" cx="64" cy="20.8" r="6.1"/>
<path class="st2" d="M16,4C9.4,4,4,9.4,4,16v96c0,6.6,5.4,12,12,12h96c6.6,0,12-5.4,12-12V16c0-6.6-5.4-12-12-12H16z"/>
</svg>
